# xmcd
#
# Track frame offsets: 
#        180
#        17602
#        37709
#        50748
#        60445
#        72333
#        92833
#        152682
#        178403
#        201511
#        221124
#        227092
#        237741
#
# Disc length: 3864 seconds
#
# Revision: 3
# Processed by: cddbd v1.4PL0 Copyright (c) Steve Scherf et al.
# Submitted via: ExactAudioCopy v0.90b4
#
DISCID=bc0f160d
DTITLE=Spanish - Mish - Let's Do.....Spanish
DYEAR=1900
DGENRE=Classical
TTITLE0=FALLA: Ritual Fire Dance from El Amor Brujo
TTITLE1=TURINA: Homenaje a Tarrega Op 69
TTITLE2=TURINA: Rafaga Op53
TTITLE3=BIZET: Carmen Suite No2 - Habanera
TTITLE4=BIZET: Carmen Suite No2 - Toreador Song
TTITLE5=BIZET: Carmen Suite No2 - Gypsy song
TTITLE6=GRANADOS: Valses poeticos
TTITLE7=GRANADOS: The Maiden and the Nightingale from Goyescas
TTITLE8=ALBENIZ: Granada No1 fm Suite espanola
TTITLE9=ALBENIZ: Sevilla No3 fm Suite espanola
TTITLE10=ALBENIZ: Boleras Sevillanas for Two Guitars
TTITLE11=ALBENIZ: El Pano Moruno for Two Guitars
TTITLE12=FALLA: Dances fm the Three-Cornered Hat
EXTD=
EXTT0=
EXTT1=
EXTT2=
EXTT3=
EXTT4=
EXTT5=
EXTT6=
EXTT7=
EXTT8=
EXTT9=
EXTT10=
EXTT11=
EXTT12=
PLAYORDER=
